<svg id="Capa_1" data-name="Capa 1" xmlns="http://www.w3.org/2000/svg" viewBox="0 0 26 29"><defs><style>.cls-1{fill:#071014;}</style></defs><title>Mesa de trabajo 5</title><path class="cls-1" d="M12.15,28c-.13,0-.19-.19-.16-.44a12,12,0,0,1,1.23-3.22,17.47,17.47,0,0,1,1.57-2.13l.5-.63,0-.05,0,0a.24.24,0,0,0-.14.05l-.12.08a10.48,10.48,0,0,1-3.09,1.44,17,17,0,0,1-3.49.78.49.49,0,0,1-.19,0A.22.22,0,0,1,8,23.66a.39.39,0,0,1,.16-.34,14.09,14.09,0,0,1,3.39-1.78A11.68,11.68,0,0,1,14.16,21a4.6,4.6,0,0,0,.61-.09c-.2-.27-.41-.57-.61-.87l-.06,0a13,13,0,0,1-5.25,1.09l-.13,0A.2.2,0,0,1,8.56,21c0-.14.11-.23.15-.26a8.87,8.87,0,0,1,2.52-1,15.54,15.54,0,0,1,2.2-.31h.27l-.52-.86a7,7,0,0,1-2.79,1,15.28,15.28,0,0,1-2.85.36l-.13,0a.25.25,0,0,1-.18-.18.34.34,0,0,1,.19-.29,11.43,11.43,0,0,1,2.95-1.22c1-.21,2.34-.36,2.36-.36h0l-.43-.82a.2.2,0,0,1-.08,0l0,0a10.17,10.17,0,0,1-3,.58,19.44,19.44,0,0,1-2.42,0l-.1,0a.22.22,0,0,1-.15-.16.21.21,0,0,1,.1-.21,8.45,8.45,0,0,1,3.05-.86c1.16-.07,1.58-.07,2.16-.07H12l-.7-1.4-.23.08a12.63,12.63,0,0,1-2.61.61,10.34,10.34,0,0,1-3.23,0l-.09,0c-.14,0-.18-.13-.18-.2s.13-.26.19-.29a6.85,6.85,0,0,1,3.1-1,18.23,18.23,0,0,1,2.62,0l-.41-.83a.42.42,0,0,0-.09-.11,16.15,16.15,0,0,1-2.52.08,14,14,0,0,1-3-.4c-.18-.06-.2-.17-.2-.23s.08-.19.24-.24A11.72,11.72,0,0,1,8,11.89a9.39,9.39,0,0,1,2,.28c-.3-.6-.53-1.05-.72-1.41l0,0a7.24,7.24,0,0,1-2.35.59,12.82,12.82,0,0,1-3,.08.33.33,0,0,1-.17,0,.19.19,0,0,1-.15-.14c0-.23.18-.32.27-.36l.09,0a9.55,9.55,0,0,1,2.48-.72A12.67,12.67,0,0,1,8.82,10c-.21-.32-.46-.66-.74-1a2,2,0,0,1-.4.11,16.12,16.12,0,0,1-3.21.19A13.34,13.34,0,0,1,2,9L1.92,9l-.08,0c-.16,0-.18-.15-.17-.2s0-.22.64-.41a10.05,10.05,0,0,1,2.82-.57,13.92,13.92,0,0,1,2.05.17c-.35-.38-.64-.65-.9-.89l-.19-.18a7.17,7.17,0,0,1-1.2-.29,3,3,0,0,1-.36-.14A6.24,6.24,0,0,1,2.22,4.81C2,4.59,2,4.49,2,4.4a.19.19,0,0,1,.07-.11c.09-.09.31-.15,1.14.13l.49.16a8.08,8.08,0,0,1,1.8.8l.28.19c-.19-.41-.44-1-.55-1.31a14.58,14.58,0,0,1-.71-2.82c0-.21,0-.33.08-.4a.21.21,0,0,1,.19,0c.17.06.4.43.5.58A21.12,21.12,0,0,1,6.65,4.53a11.2,11.2,0,0,1,.4,2.06l.49.4a11.47,11.47,0,0,1,.22-1.74,12.86,12.86,0,0,1,.86-2.67c0-.1.18-.4.4-.32s.22.28.24.38A9.68,9.68,0,0,1,9,5.42,7.61,7.61,0,0,1,8.4,7.55a.76.76,0,0,1-.11.14c.23.24.46.49.67.75l.12.15a21.61,21.61,0,0,1,.55-2.21c.45-1.46.84-2.52.93-2.7s.25-.18.29-.17.15.14.15.3v0a10.16,10.16,0,0,1-.41,3,9.19,9.19,0,0,1-.84,2.23l-.16.22c.22.36.48.81.78,1.36a7,7,0,0,1,.43-1A16.24,16.24,0,0,1,12.5,7.1c.37-.37.51-.43.61-.39l.06,0c.19.12.15.56-.12,1.34a9,9,0,0,1-.93,2,12.43,12.43,0,0,1-1.25,1.59l.27.5.34.64.18-.34a16,16,0,0,1,1.41-2.06,20.42,20.42,0,0,1,1.45-1.54c.13-.09.23-.14.33-.11a.24.24,0,0,1,.09.08c.08.13,0,.49-.31,1.06l-.11.23a10.07,10.07,0,0,1-1.3,2.09,8.84,8.84,0,0,1-1.31,1.37l.09.16c.17.3.37.67.62,1.09a10.47,10.47,0,0,1,.83-1.89A14.39,14.39,0,0,1,15,10.65a.33.33,0,0,1,.32-.14l.07,0c.11.11.06.35,0,.5a13,13,0,0,1-.94,2.48,9.79,9.79,0,0,1-1.22,1.78l-.2.19c.15.26.32.53.48.78a5.23,5.23,0,0,1,.38-.74,13.84,13.84,0,0,1,1.52-1.93,4,4,0,0,1,.71-.6.31.31,0,0,1,.26-.06c.06,0,.16.09.12.33a8.38,8.38,0,0,1-1.1,2.38,5.75,5.75,0,0,1-1.33,1.47c.36.54.72,1.05,1.08,1.52a6.68,6.68,0,0,1,.19-1.08,25,25,0,0,1,1-3.15,6.68,6.68,0,0,1,.43-.87l0-.08c.13-.19.24-.19.3-.17s.16.23.16.29a7.62,7.62,0,0,1-.36,3.11,8.9,8.9,0,0,1-1.23,2.65c.29.35.59.69.87,1l.19.19c0-.18.05-.39.1-.63a15.09,15.09,0,0,1,.57-2.1,16.2,16.2,0,0,1,1.37-3c.17-.23.32-.37.46-.32a.2.2,0,0,1,.13.19,9.18,9.18,0,0,1-.52,3.71,10.1,10.1,0,0,1-1.38,2.77,13.79,13.79,0,0,0,3.75,1.88l1,.32.77.2.29.06a.82.82,0,0,1,.26.1,1.26,1.26,0,0,1,.42.44,1.38,1.38,0,0,1,.16.69,1.92,1.92,0,0,1-.14.62,2.17,2.17,0,0,1-.45.74,1.58,1.58,0,0,1-.51.38,1.45,1.45,0,0,1-.45.13.51.51,0,0,1-.3-.06l-.25-.13-.48-.25-.86-.46L20,25.41,19.33,25l-.55-.34-.47-.31-.4-.29c-.12-.09-.24-.17-.35-.27l-.31-.25L17,23.32l-.14-.12q-.45-.42-.93-.93l-.08.24a14.51,14.51,0,0,1-1.23,2.73,13.14,13.14,0,0,1-2.06,2.63.44.44,0,0,1-.37.12"/></svg>