<svg id="Capa_1" data-name="Capa 1" xmlns="http://www.w3.org/2000/svg" viewBox="0 0 20 27"><defs><style>.cls-1{fill:#071014;}</style></defs><title>Mesa de trabajo 4</title><path class="cls-1" d="M17.58,6.93H2.42V5.72c0-.09,0-.15.13-.15h14.9a.13.13,0,0,1,.13.15Zm-1.34,17c0,.09,0,.14-.13.14H3.89c-.09,0-.13,0-.13-.14V8.44H16.24ZM7,2.7h6V4.06H7ZM17.45,4.06h-3V2a.73.73,0,0,0-.72-.76H6.31a.72.72,0,0,0-.7.76V4.06H2.55A1.59,1.59,0,0,0,1,5.72V8.44H2.35V23.92a1.57,1.57,0,0,0,1.54,1.65H16.11a1.58,1.58,0,0,0,1.55-1.65V8.44H19V5.72a1.59,1.59,0,0,0-1.55-1.66"/><rect class="cls-1" x="12.57" y="10.21" width="1.44" height="12.51"/><rect class="cls-1" x="9.29" y="10.21" width="1.44" height="12.51"/><rect class="cls-1" x="6.01" y="10.21" width="1.44" height="12.51"/></svg>